<svg xmlns="http://www.w3.org/2000/svg" viewBox="0 0 1001.1 344.04">
  <defs>
    <style>
      .energy { fill: #ffffff; }
      .siemens { fill: #009999; }
    </style>
  </defs>
  <g aria-label="Energy">
    <path class="energy" d="M299.60377,190.006c-10.75342-.94494-21.74414-1.5141-32.69922-1.5141-11.04052,0-21.94629.56916-32.69873,1.51233a45.24983,45.24983,0,0,0-41.30127,44.98767v107h19.5v-107a25.98389,25.98389,0,0,1,24.27539-25.77069c9.94239-.69165,20.02-1.22931,30.22461-1.22931s20.28223.53766,30.22364,1.22919a25.9842,25.9842,0,0,1,24.27636,25.77081v107h19.5v-107A45.182,45.182,0,0,0,299.60377,190.006Zm-175.15826-.26361c-13.33545-.70831-26.80176-1.25049-40.39551-1.25049s-27.061.54059-40.39551,1.25153A45.46469,45.46469,0,0,0,.55,234.99192v62A45.44915,45.44915,0,0,0,43.653,342.2313c13.33642.72321,26.80322,1.26062,40.397,1.26062s27.05908-.54193,40.39746-1.26086A45.45093,45.45093,0,0,0,167.55,296.99192v-3.5h-19.5v3.5a25.8646,25.8646,0,0,1-24.40332,25.70343c-13.06445.77588-26.27148,1.29657-39.59668,1.29657s-26.52979-.52179-39.59668-1.29931A25.86026,25.86026,0,0,1,20.05,296.99192v-62a25.86305,25.86305,0,0,1,24.40332-25.70117c13.06738-.77624,26.27148-1.29883,39.59668-1.29883s26.5293.5224,39.59668,1.29877A25.86363,25.86363,0,0,1,148.05,234.99192v21H67.55v20h100v-41A45.46752,45.46752,0,0,0,124.44551,189.74241ZM560.135,234.99192v107h19.5v-107c0-13.67266,11.226-25.5,24.77234-25.5H644.135V189.98423s-29.6831.02-40.40191.02C582.48811,190.00425,560.135,208.42344,560.135,234.99192Zm-70.60449-45.24951c-13.33545-.70831-26.80176-1.25049-40.39551-1.25049s-27.061.54059-40.39551,1.25153A45.4647,45.4647,0,0,0,365.635,234.99192v62a45.44915,45.44915,0,0,0,43.103,45.23938c13.33643.72321,26.80322,1.26062,40.397,1.26062s27.05908-.54193,40.39746-1.26086A45.45093,45.45093,0,0,0,532.635,296.99192v-3.5h-19.5v3.5a25.8646,25.8646,0,0,1-24.40332,25.70343c-13.06445.77588-26.27148,1.29657-39.59668,1.29657s-26.52978-.52179-39.59668-1.29931A25.86026,25.86026,0,0,1,385.135,296.99192v-62a25.86305,25.86305,0,0,1,24.40332-25.70117c13.06739-.77624,26.27149-1.29883,39.59668-1.29883s26.5293.5224,39.59668,1.29877A25.86363,25.86363,0,0,1,513.135,234.99192v21h-80.5v20h100v-41A45.46752,45.46752,0,0,0,489.53053,189.74241Zm292.50195.01038c-13.33838-.71894-26.80371-1.26087-40.39746-1.26087s-27.06054.53742-40.397,1.26062a45.44916,45.44916,0,0,0-43.103,45.23938v62a45.46471,45.46471,0,0,0,43.10449,45.24848c13.33448.71094,26.80176,1.25152,40.39551,1.25152s27.06006-.54217,40.39551-1.25048A45.46752,45.46752,0,0,0,825.135,296.99192v-41h-100v20h80.5v21a25.86363,25.86363,0,0,1-24.40332,25.70124c-13.06738.77636-26.27148,1.29876-39.59668,1.29876s-26.52929-.52258-39.59668-1.29882A25.86306,25.86306,0,0,1,677.635,296.99192v-62a25.86025,25.86025,0,0,1,24.40332-25.70068c13.0669-.77753,26.27149-1.29932,39.59668-1.29932s26.53223.52069,39.59668,1.29657A25.86462,25.86462,0,0,1,805.635,234.99192v3.5h19.5v-3.5A45.45093,45.45093,0,0,0,782.03248,189.75279Zm218.51752.23913H976.1335L909.88643,277.906a44.80015,44.80015,0,0,0-9.0669,27.08593v37h19.5v-37a25.384,25.384,0,0,1,5.14551-15.358Zm-147.73389,0H827.36055l69.45556,82.77381,12.04395-15.983Z"/>
  </g>
  <g aria-label="SIEMENS">
    <path class="siemens" d="M264.16621,90.2556h59.28168V65.13011H264.16621V30.74089H332.2707V3.19456H223.16621v152.2973H334.02607V126.3972H264.16621Zm191.105,10.25-38.31891-97.311h-55.1557v152.2973h29.97223V47.66178l43.80408,109.376h26.3692l44.66357-109.376V155.49186h40.33393V3.19456H494.551ZM141.613,155.49186h42.53949V3.19456H141.613ZM69.49342,60.66038Q50.13469,51.9452,45.82881,49.25407q-5.16724-3.33317-5.165-8.602,0-14.10132,25.62061-14.09131,18.19546,0,39.40332,8.46924V6.0969Q77.173.54514,62.1042.54808q-27.33618,0-44.34229,11.72308Q.55439,24.10124.55,46.69261q0,17.5393,11.81842,29.043,9.11865,8.71947,39.18988,21.08148,16.75635,6.88925,20.83551,10.76373a11.778,11.778,0,0,1,3.97748,9.03217q0,14.417-27.291,14.41992-19.76586,0-45.44433-8.082v30.07715a207.29443,207.29443,0,0,0,47.23437,5.541q27.76173,0,45.19831-10.53522,21.51626-13.00918,21.521-37.76068,0-17.22069-10.97809-28.084Q97.36552,73.036,69.49342,60.66038ZM989.56947,82.18919q-9.32656-9.15317-37.00488-21.52881-19.683-8.81625-23.77832-11.40631-5.15471-3.33317-5.1474-8.602,0-14.10132,25.50293-14.09131,18.2914,0,39.50775,8.46924V6.0969l-3.76068-.65283Q960.4626.54051,945.0793.54808q-27.33847,0-44.34381,11.72308Q883.509,24.10124,883.52559,46.59007q0,17.74218,11.80658,29.14551,9.20223,8.825,39.19921,21.08148,16.85605,6.88925,20.94538,10.76373a11.97131,11.97131,0,0,1,3.85449,9.03217q0,14.417-27.28223,14.41992-19.998,0-45.45214-8.082v30.07715a207.19687,207.19687,0,0,0,47.24615,5.541q27.75723,0,45.30072-10.53522,21.40713-13.00918,21.40625-37.76068Q1000.55,93.05248,989.56947,82.18919ZM626.965,90.2556h59.28033V65.13011H626.965V30.74089h68.09869V3.19456H585.96107v152.2973h110.8692V126.3972H626.965Zm199.46777,14.89056L774.1252,3.19456H724.82148v152.2973h29.97559V52.16868l53.69629,103.32318h47.90332V3.19456H826.43275Z"/>
  </g>
</svg>
